<svg width="23" height="19" viewBox="0 0 23 19" fill="none" xmlns="http://www.w3.org/2000/svg">
<path d="M21.924 5.5685H20.64H18.924L14.784 0.336497C14.484 -0.0475034 13.932 -0.107504 13.548 0.192496C13.164 0.492496 13.104 1.0445 13.404 1.4285L16.692 5.5685H6.108L9.396 1.4165C9.696 1.0325 9.636 0.480496 9.252 0.180496C8.868 -0.107504 8.316 -0.0475034 8.016 0.336497L3.864 5.5685H2.16H0.876C0.396 5.5685 0 5.9645 0 6.4445C0 6.9245 0.396 7.3205 0.876 7.3205H1.452L3.372 16.2005C3.612 17.3525 4.632 18.1925 5.808 18.1925H16.98C18.156 18.1925 19.188 17.3525 19.416 16.2125L21.348 7.3205H21.924C22.404 7.3205 22.8 6.9245 22.8 6.4445C22.8 5.9525 22.404 5.5685 21.924 5.5685ZM7.536 14.8925C7.476 14.9045 7.416 14.9045 7.368 14.9045C6.96 14.9045 6.588 14.6165 6.504 14.1965L5.652 9.8885C5.556 9.4085 5.868 8.9525 6.348 8.8565C6.828 8.7605 7.284 9.0725 7.38 9.5525L8.232 13.8605C8.316 14.3405 8.016 14.7965 7.536 14.8925ZM12.276 14.0285C12.276 14.5085 11.88 14.9045 11.4 14.9045C10.92 14.9045 10.524 14.5085 10.524 14.0285V9.7205C10.524 9.2405 10.92 8.8445 11.4 8.8445C11.88 8.8445 12.276 9.2405 12.276 9.7205V14.0285ZM16.296 14.2085C16.212 14.6285 15.852 14.9165 15.432 14.9165C15.372 14.9165 15.324 14.9165 15.264 14.9045C14.784 14.8085 14.484 14.3525 14.568 13.8725L15.42 9.5645C15.516 9.0845 15.972 8.7845 16.452 8.8685C16.932 8.9645 17.232 9.4205 17.148 9.9005L16.296 14.2085Z" fill="#273137"/>
</svg>
