
<svg width="58px" height="16px" viewBox="0 0 58 16" version="1.1" xmlns="http://www.w3.org/2000/svg" xmlns:xlink="http://www.w3.org/1999/xlink">
    <title>mir</title>
    <defs>
        <linearGradient x1="87.5878714%" y1="-32.5%" x2="9.73198571%" y2="-32.5%" id="linearGradient-1">
            <stop stop-color="#1F5CD7" offset="0%"></stop>
            <stop stop-color="#02AEFF" offset="100%"></stop>
        </linearGradient>
    </defs>
    <g id="mir" stroke="none" stroke-width="1" fill="none" fill-rule="evenodd">
        <g transform="translate(0, -0.0026)" fill-rule="nonzero">
            <path d="M0,0.00260416667 L5.4375,0.00260416667 C5.93181818,0.00260416667 7.41477273,-0.1640625 8.07386364,2.16927083 C8.56818182,3.66927083 9.22727273,6.00260417 10.2159091,9.50260417 L10.5454545,9.50260417 C11.5340909,5.8359375 12.3579545,3.3359375 12.6875,2.16927083 C13.3465909,-0.1640625 14.9943182,0.00260416667 15.6534091,0.00260416667 L20.7613636,0.00260416667 L20.7613636,16.0026042 L15.4886364,16.0026042 L15.4886364,6.50260417 L15.1590909,6.50260417 L12.3579545,16.0026042 L8.40340909,16.0026042 L5.60227273,6.50260417 L5.10795455,6.50260417 L5.10795455,16.0026042 L0,16.0026042 M22.9034091,0.00260416667 L28.1761364,0.00260416667 L28.1761364,9.50260417 L28.6704545,9.50260417 L32.1306818,1.66927083 C32.7897727,0.169270833 34.2727273,0.00260416667 34.2727273,0.00260416667 L39.2159091,0.00260416667 L39.2159091,16.0026042 L33.9431818,16.0026042 L33.9431818,6.50260417 L33.6136364,6.50260417 L30.1534091,14.3359375 C29.4943182,15.8359375 27.8465909,16.0026042 27.8465909,16.0026042 L22.9034091,16.0026042 M46.3011364,11.1692708 L46.3011364,16.0026042 L41.3579545,16.0026042 L41.3579545,7.66927083 L57.5056818,7.66927083 C56.8465909,9.66927083 54.5397727,11.1692708 51.9034091,11.1692708" id="Shape" fill="#0F754E"></path>
            <path d="M57.8352273,6.66927083 C58.4943182,3.66927083 56.5170455,0.00260416667 52.2329545,0.00260416667 L41.0284091,0.00260416667 C41.3579545,3.50260417 44.3238636,6.66927083 47.4545455,6.66927083" id="Path" fill="url(#linearGradient-1)"></path>
        </g>
    </g>
</svg>