
<svg width="53px" height="32px" viewBox="0 0 53 32" version="1.1" xmlns="http://www.w3.org/2000/svg" xmlns:xlink="http://www.w3.org/1999/xlink">
    <title>sbp</title>
    <g id="sbp" stroke="none" stroke-width="1" fill="none" fill-rule="evenodd">
        <polygon id="path60" fill="#000000" fill-rule="nonzero" points="52.9097709 12.3343179 52.9097709 20.1577845 50.0913546 20.1577845 50.0913546 14.6697845 47.3775932 14.6697845 47.3775932 20.1577845 44.559177 20.1577845 44.559177 12.3337845 52.9097709 12.3337845"></polygon>
        <path d="M38.7708775,20.4375179 C41.2938927,20.4375179 43.1674561,18.9041845 43.1674561,16.5796512 C43.1674561,14.3297845 41.7851516,12.8689845 39.4749435,12.8689845 C38.4087556,12.8689845 37.5290094,13.2409845 36.8663749,13.8828512 C37.0245678,12.5561845 38.1564003,11.5876512 39.4025729,11.5876512 C39.6901719,11.5876512 41.8553698,11.5831179 41.8553698,11.5831179 L43.0797506,9.26071787 C43.0797506,9.26071787 40.3614155,9.3220512 39.0977556,9.3220512 C36.2104663,9.37191787 34.2602277,11.9732512 34.2602277,15.1327179 C34.2602277,18.8135179 36.1623089,20.4375179 38.7708775,20.4375179 Z M38.7862125,14.9260512 C39.7229942,14.9260512 40.372446,15.5361845 40.372446,16.5793845 C40.372446,17.5183179 39.7953648,18.2919179 38.7862125,18.2940512 C37.820913,18.2940512 37.1714612,17.5772512 37.1714612,16.5953845 C37.1714612,15.5519179 37.820913,14.9260512 38.7862125,14.9260512 L38.7862125,14.9260512 Z" id="path62" fill="#000000"></path>
        <path d="M31.9661617,17.5385845 C31.9661617,17.5385845 31.3005678,17.9188512 30.3064815,17.9908512 C29.1636186,18.0244512 28.1453191,17.3089845 28.1453191,16.0377845 C28.1453191,14.7977845 29.0438978,14.0871179 30.2776947,14.0871179 C31.0342226,14.0871179 32.0350348,14.6068512 32.0350348,14.6068512 C32.0350348,14.6068512 32.7673495,13.2748512 33.1466896,12.6087179 C32.4520399,12.0868512 31.5268267,11.8007179 30.4506846,11.8007179 C27.7347709,11.8007179 25.631182,13.5559179 25.631182,16.0220512 C25.631182,18.5196512 27.6083242,20.2340512 30.4506846,20.1823179 C31.2451465,20.1529845 32.3411973,19.8764512 33.0092125,19.4511179 L31.9661617,17.5385845 Z" id="path64" fill="#000000" fill-rule="nonzero"></path>
        <polygon id="path66" fill="#5B57A2" fill-rule="nonzero" points="0 6.96533333 3.90962437 13.892 3.90962437 18.1170667 0.00457360406 25.0301333"></polygon>
        <polygon id="path68" fill="#D90751" fill-rule="nonzero" points="15.0113756 11.3714667 18.6748325 9.14586667 26.1723147 9.13893333 15.0113756 15.916"></polygon>
        <polygon id="path70" fill="#FAB718" fill-rule="nonzero" points="14.9906599 6.92453333 15.0113756 16.0952 11.0926041 13.7085333 11.0926041 0 14.9909289 6.92453333"></polygon>
        <polygon id="path72" fill="#ED6F26" fill-rule="nonzero" points="26.1723147 9.13893333 18.6745635 9.14586667 14.9906599 6.92453333 11.0926041 0 26.1720457 9.13893333"></polygon>
        <polygon id="path74" fill="#63B22F" fill-rule="nonzero" points="15.0113756 25.0685333 15.0113756 20.6192 11.0926041 18.2778667 11.0947563 32"></polygon>
        <polygon id="path76" fill="#1487C9" fill-rule="nonzero" points="18.6656853 22.8632 3.90935533 13.892 0 6.96533333 26.1564416 22.8541333 18.6654162 22.8632"></polygon>
        <polygon id="path78" fill="#017F36" fill-rule="nonzero" points="11.0950254 32 15.0111066 25.0685333 18.6654162 22.8632 26.1561726 22.8541333"></polygon>
        <polygon id="path80" fill="#984995" fill-rule="nonzero" points="0.00457360406 25.0301333 11.1246193 18.2781333 7.38610152 16.0045333 3.90962437 18.1170667"></polygon>
    </g>
</svg>